<svg xmlns="http://www.w3.org/2000/svg" viewBox="0 0 64 64" role="img" aria-label="Dr Benji Schreiber favicon">
  <rect width="64" height="64" rx="14" fill="#102a43" />
  <path d="M22 15h13.5c7 0 11.5 3.9 11.5 9.8 0 4.3-2.3 7.2-6.3 8.5 4.8 1.1 7.7 4.5 7.7 9.3 0 6.5-5 10.4-13 10.4H22V15zm12.1 15c4.2 0 6.4-1.6 6.4-4.6 0-3-2.2-4.5-6.4-4.5h-5.4V30h5.4zm1.1 17.8c4.5 0 6.9-1.8 6.9-5.2 0-3.5-2.4-5.3-6.9-5.3h-6.5v10.5h6.5z" fill="#c9973a" />
  <path d="M16 50.5h32" stroke="#fef3c7" stroke-width="2.5" stroke-linecap="round" opacity=".8" />
</svg>
